<?xml version="1.0" encoding="UTF-8"?>
<svg id="Layer_2" data-name="Layer 2" xmlns="http://www.w3.org/2000/svg" viewBox="0 0 388 153">
  <defs>
    <style>
      .cls-1 {
        fill: #00aeff;
        fill-rule: evenodd;
      }
    </style>
  </defs>
  <g id="Layer_1-2" data-name="Layer 1">
    <g>
      <path class="cls-1" d="M189.5,148.1c3.04,0,5.5,1.79,5.5,2.9s-2.46,2-5.5,2-6.4-.9-6.4-2,3.36-2.9,6.4-2.9Z"/>
      <path class="cls-1" d="M155.5,123.1c3.04,0,5.5,1.79,5.5,2.9s-2.46,2-5.5,2-6.4-.89-6.4-2,3.36-2.9,6.4-2.9Z"/>
      <path class="cls-1" d="M128.5,99.1c3.04,0,5.5,1.79,5.5,2.9s-2.46,2-5.5,2-6.4-.89-6.4-2,3.36-2.9,6.4-2.9Z"/>
      <path class="cls-1" d="M99.5,77.1c3.04,0,5.5,1.79,5.5,2.9s-2.46,2-5.5,2-6.4-.89-6.4-2,3.36-2.9,6.4-2.9Z"/>
      <path class="cls-1" d="M74.5,55.1c3.04,0,5.5,1.8,5.5,2.9s-2.46,2-5.5,2-6.4-.9-6.4-2,3.36-2.9,6.4-2.9Z"/>
      <path class="cls-1" d="M51.5,36.1c3.04,0,5.5,1.8,5.5,2.9s-2.46,2-5.5,2-6.4-.9-6.4-2,3.36-2.9,6.4-2.9Z"/>
      <path class="cls-1" d="M29.5,17.1c3.04,0,5.5,1.8,5.5,2.9s-2.46,2-5.5,2-6.4-.9-6.4-2,3.36-2.9,6.4-2.9Z"/>
      <path class="cls-1" d="M5.5,0c3.04,0,5.5.89,5.5,2s-2.46,2-5.5,2S0,3.11,0,2,2.46,0,5.5,0Z"/>
      <path class="cls-1" d="M238.5,140.1c3.04,0,5.5,1.79,5.5,2.9s-2.46,2-5.5,2-6.4-.9-6.4-2,3.36-2.9,6.4-2.9Z"/>
      <path class="cls-1" d="M275.5,127.1c3.04,0,5.5,1.8,5.5,2.9s-2.46,2-5.5,2-6.4-.9-6.4-2,3.36-2.9,6.4-2.9Z"/>
      <path class="cls-1" d="M310.5,113.1c3.04,0,5.5,1.79,5.5,2.9s-2.46,2-5.5,2-6.4-.89-6.4-2,3.36-2.9,6.4-2.9Z"/>
      <path class="cls-1" d="M351.5,99.1c3.04,0,5.5,1.79,5.5,2.9s-2.46,2-5.5,2-6.4-.89-6.4-2,3.36-2.9,6.4-2.9Z"/>
      <path class="cls-1" d="M382.5,88.1c3.04,0,5.5,1.79,5.5,2.9s-2.46,2-5.5,2-6.4-.89-6.4-2,3.36-2.9,6.4-2.9Z"/>
    </g>
  </g>
</svg>