<?xml version="1.0" encoding="UTF-8"?>
<svg id="Layer_2" data-name="Layer 2" xmlns="http://www.w3.org/2000/svg" viewBox="0 0 66 106">
  <defs>
    <style>
      .cls-1 {
        fill: #d9d9d9;
      }
    </style>
  </defs>
  <g id="Layer_1-2" data-name="Layer 1">
    <path class="cls-1" d="M35,.07c-.66-.04-1.33-.07-2-.07C14.8,0,0,14.8,0,33v40c0,18.2,14.8,33,33,33s33-14.8,33-33v-40C66,15.48,52.27,1.1,35,.07ZM65,73c0,17.64-14.36,32-32,32S1,90.64,1,73v-40C1,15.36,15.36,1,33,1c.67,0,1.34.03,2,.07v30.17c0,11.05,8.95,20,20,20h10v21.76Z"/>
  </g>
</svg>